<?xml version="1.0" encoding="UTF-8"?>
<svg version="1.1" xmlns="http://www.w3.org/2000/svg" width="500" height="500">
<path d="M0 0 C165 0 330 0 500 0 C500 165 500 330 500 500 C335 500 170 500 0 500 C0 335 0 170 0 0 Z " fill="#FEFEFE" transform="translate(0,0)"/>
<path d="M0 0 C0.11039334 8.40215965 -0.04541351 16.64736824 -1 25 C-4.65562324 23.78145892 -4.86003413 22.97006113 -6.62890625 19.66796875 C-7.10650391 18.78689453 -7.58410156 17.90582031 -8.07617188 16.99804688 C-8.56666016 16.07056641 -9.05714844 15.14308594 -9.5625 14.1875 C-10.05685547 13.27162109 -10.55121094 12.35574219 -11.06054688 11.41210938 C-14.72151219 4.61034296 -14.72151219 4.61034296 -16.01538086 1.7746582 C-17.46868274 -0.84474457 -19.19501502 -1.10750478 -22 -2 C-23.31484375 -2.50660156 -23.31484375 -2.50660156 -24.65625 -3.0234375 C-31.98263923 -5.16315398 -40.91968001 -5.40339035 -48.19140625 -2.90234375 C-52.28195229 -0.61627108 -56.40208253 2.25947795 -58.44140625 6.62109375 C-60.10098037 13.68879053 -60.72511991 23.07661057 -57.0625 29.5625 C-48.67046887 40.12767417 -35.25660701 45.24694571 -23 50 C-23 50.33 -23 50.66 -23 51 C-41.48 51 -59.96 51 -79 51 C-85.12480116 40.28159798 -86.95265838 29.51429521 -84.41796875 17.1640625 C-81.04217556 7.39121828 -73.96472692 0.52068222 -64.875 -4 C-44.34712017 -13.68208391 -19.49479377 -10.9658215 0 0 Z " fill="#FF3636" transform="translate(351,193)"/>
<path d="M0 0 C16.83 0 33.66 0 51 0 C50 3 50 3 47.0625 4.5625 C46.051875 5.036875 45.04125 5.51125 44 6 C41.51072892 8.48927108 41.73403625 9.2876435 41.68115234 12.72509766 C41.66128265 13.70596344 41.64141296 14.68682922 41.62094116 15.69741821 C41.60361435 17.28965714 41.60361435 17.28965714 41.5859375 18.9140625 C41.56657135 19.99883881 41.5472052 21.08361511 41.5272522 22.20126343 C41.46733574 25.67576159 41.42102261 29.15029267 41.375 32.625 C41.33683135 34.97657718 41.29778029 37.32814021 41.2578125 39.6796875 C41.15995885 45.45305259 41.08048498 51.22626178 41 57 C30.77 57 20.54 57 10 57 C9.96261719 53.49761719 9.92523438 49.99523437 9.88671875 46.38671875 C9.84053021 43.00099376 9.78928674 39.61538051 9.73754883 36.22973633 C9.7042598 33.87368539 9.67624039 31.51755394 9.65356445 29.16137695 C9.62009197 25.77780793 9.56777908 22.39497946 9.51171875 19.01171875 C9.50532883 17.95538742 9.4989389 16.89905609 9.49235535 15.81071472 C9.47256119 14.82992447 9.45276703 13.84913422 9.43237305 12.83862305 C9.42126999 11.97480515 9.41016693 11.11098724 9.39872742 10.22099304 C8.91027423 7.50020918 8.1567807 6.68066687 6 5 C4.02379014 3.95377125 2.0262871 2.94560065 0 2 C0 1.34 0 0.68 0 0 Z " fill="#FF3636" transform="translate(142,187)"/>
<path d="M0 0 C9.24 0 18.48 0 28 0 C26.54656677 13.08089905 23.21412845 21.39042352 12.8203125 29.75390625 C-2.840024 40.27322319 -25.81286401 40.51744055 -43.78515625 37.26953125 C-51.29824368 35.39699166 -56.87972913 32.56013543 -64 29 C-64 20.09 -64 11.18 -64 2 C-63.01 2 -62.02 2 -61 2 C-59.20771701 5.41634371 -57.41628127 8.83313098 -55.625 12.25 C-55.11710937 13.21808594 -54.60921875 14.18617188 -54.0859375 15.18359375 C-53.59609375 16.11816406 -53.10625 17.05273438 -52.6015625 18.015625 C-52.15119629 18.87446289 -51.70083008 19.73330078 -51.23681641 20.61816406 C-50 23 -50 23 -49.08740234 25.18652344 C-47.701183 27.49834142 -46.46652408 27.9811999 -44 29 C-43.33814697 29.34740234 -42.67629395 29.69480469 -41.99438477 30.05273438 C-36.19159049 32.9082583 -31.36083757 33.61794958 -24.9375 33.5 C-24.09123047 33.51546875 -23.24496094 33.5309375 -22.37304688 33.546875 C-15.4714159 33.50430519 -10.27380061 31.76819434 -4.9765625 27.2890625 C1.01199038 19.91587311 1.56007323 13.35192045 1 4 C0.505 2.02 0.505 2.02 0 0 Z " fill="#FF3636" transform="translate(329,284)"/>
<path d="M0 0 C10.23 0 20.46 0 31 0 C31.1875 12.6875 31.1875 12.6875 31.20776367 16.6628418 C31.14152766 23.53760993 31.14152766 23.53760993 34.40625 29.25 C36.56745169 30.70816017 38.58650478 32.01672417 41 33 C41 33.66 41 34.32 41 35 C24.17 35 7.34 35 -10 35 C-9.67 34.01 -9.34 33.02 -9 32 C-6.68191636 30.96514123 -4.34824702 29.9644586 -2 29 C-0.63160637 26.26321275 -0.78365182 23.95735576 -0.68359375 20.8984375 C-0.64548584 19.80708496 -0.60737793 18.71573242 -0.56811523 17.59130859 C-0.52501221 16.19992676 -0.48190918 14.80854492 -0.4375 13.375 C-0.293125 8.96125 -0.14875 4.5475 0 0 Z " fill="#FF3434" transform="translate(152,284)"/>
<path d="M0 0 C3.375 -0.125 3.375 -0.125 7 0 C9 2 9 2 9.125 4.4375 C9.08375 5.283125 9.0425 6.12875 9 7 C8.7763932 9.9254644 8.7763932 9.9254644 10 12 C9.01 11.67 8.02 11.34 7 11 C6.67 10.34 6.34 9.68 6 9 C3.97536745 8.34786708 3.97536745 8.34786708 2 8 C2 9.32 2 10.64 2 12 C1.34 12 0.68 12 0 12 C0 8.04 0 4.08 0 0 Z " fill="#4A7EC5" transform="translate(148,259)"/>
<path d="M0 0 C2.97 0 5.94 0 9 0 C9 0.66 9 1.32 9 2 C6.69 2 4.38 2 2 2 C2 3.32 2 4.64 2 6 C3.98 6 5.96 6 8 6 C8 6.33 8 6.66 8 7 C6.02 7 4.04 7 2 7 C2 8.32 2 9.64 2 11 C4.31 11 6.62 11 9 11 C9 11.33 9 11.66 9 12 C6.03 12 3.06 12 0 12 C0 8.04 0 4.08 0 0 Z " fill="#447AC2" transform="translate(194,259)"/>
<path d="M0 0 C2.00720923 0.28674418 4.0085944 0.61866701 6 1 C6 1.99 6 2.98 6 4 C4.02 3.34 2.04 2.68 0 2 C0 2.99 0 3.98 0 5 C2.97 5.495 2.97 5.495 6 6 C6.38218767 7.65614657 6.71395102 9.32457024 7 11 C6 12 6 12 2.4375 12.0625 C1.303125 12.041875 0.16875 12.02125 -1 12 C-1.33 11.01 -1.66 10.02 -2 9 C0.31 9.33 2.62 9.66 5 10 C5 9.34 5 8.68 5 8 C2.69 7.01 0.38 6.02 -2 5 C-1.125 1.125 -1.125 1.125 0 0 Z " fill="#4A7FC5" transform="translate(254,259)"/>
<path d="M0 0 C2.625 0.375 2.625 0.375 5 1 C5 1.99 5 2.98 5 4 C3.68 3.67 2.36 3.34 1 3 C0.67 3.66 0.34 4.32 0 5 C0.78375 5.0825 1.5675 5.165 2.375 5.25 C5 6 5 6 6.3125 8.0625 C6.539375 8.701875 6.76625 9.34125 7 10 C5 12 5 12 1.875 12.125 C0.451875 12.063125 0.451875 12.063125 -1 12 C-1 11.01 -1 10.02 -1 9 C0.65 9.33 2.3 9.66 4 10 C4 9.34 4 8.68 4 8 C3.195625 7.7525 2.39125 7.505 1.5625 7.25 C-1 6 -1 6 -1.9375 4 C-1.958125 3.34 -1.97875 2.68 -2 2 C-1.34 1.34 -0.68 0.68 0 0 Z " fill="#457BC3" transform="translate(384,259)"/>
<path d="M0 0 C2.31 0.33 4.62 0.66 7 1 C6.67 2.98 6.34 4.96 6 7 C4.02 7 2.04 7 0 7 C0 4.69 0 2.38 0 0 Z " fill="#A6BFE2" transform="translate(194,360)"/>
<path d="M0 0 C1.66611905 -0.042721 3.33382885 -0.04063832 5 0 C6 1 6 1 6.125 3.5 C6 6 6 6 5 7 C3.33382885 7.04063832 1.66611905 7.042721 0 7 C-1.125 2.25 -1.125 2.25 0 0 Z " fill="#A7C1E2" transform="translate(260,360)"/>
<path d="M0 0 C0.99 0 1.98 0 3 0 C4.32 3.63 5.64 7.26 7 11 C6.34 11 5.68 11 5 11 C3.68 8.36 2.36 5.72 1 3 C-0.32 5.64 -1.64 8.28 -3 11 C-3.33 10.34 -3.66 9.68 -4 9 C-3.22265625 6.8359375 -3.22265625 6.8359375 -2.0625 4.375 C-1.68222656 3.55773437 -1.30195313 2.74046875 -0.91015625 1.8984375 C-0.60980469 1.27195312 -0.30945313 0.64546875 0 0 Z " fill="#346FBD" transform="translate(362,260)"/>
<path d="M0 0 C0.99 0 1.98 0 3 0 C4.32 3.63 5.64 7.26 7 11 C6.34 11 5.68 11 5 11 C3.68 8.36 2.36 5.72 1 3 C-0.32 5.64 -1.64 8.28 -3 11 C-3.33 10.34 -3.66 9.68 -4 9 C-3.22265625 6.8359375 -3.22265625 6.8359375 -2.0625 4.375 C-1.68222656 3.55773437 -1.30195313 2.74046875 -0.91015625 1.8984375 C-0.60980469 1.27195312 -0.30945313 0.64546875 0 0 Z " fill="#346FBD" transform="translate(278,260)"/>
<path d="M0 0 C0.66 0 1.32 0 2 0 C2 3.3 2 6.6 2 10 C3.98 10 5.96 10 8 10 C8 10.66 8 11.32 8 12 C5.36 12 2.72 12 0 12 C0 8.04 0 4.08 0 0 Z " fill="#5B8BCA" transform="translate(298,259)"/>
<path d="M0 0 C0.66 0 1.32 0 2 0 C2 3.96 2 7.92 2 12 C-1.76687864 10.11656068 -2.79421646 9.30867531 -5 6 C-4.67 5.34 -4.34 4.68 -4 4 C-3.01 5.32 -2.02 6.64 -1 8 C-0.67 5.36 -0.34 2.72 0 0 Z " fill="#4C80C5" transform="translate(343,259)"/>
<path d="M0 0 C1.65 0 3.3 0 5 0 C5 1.32 5 2.64 5 4 C4.360625 4.12375 3.72125 4.2475 3.0625 4.375 C2.0415625 4.684375 2.0415625 4.684375 1 5 C0.67 5.66 0.34 6.32 0 7 C0 4.69 0 2.38 0 0 Z " fill="#89ABD9" transform="translate(274,360)"/>
<path d="M0 0 C1.65 0 3.3 0 5 0 C5 1.32 5 2.64 5 4 C4.01 4.495 4.01 4.495 3 5 C2.34 4.67 1.68 4.34 1 4 C0.67 4.99 0.34 5.98 0 7 C0 4.69 0 2.38 0 0 Z " fill="#7FA4D6" transform="translate(300,360)"/>
<path d="M0 0 C1.98 0 3.96 0 6 0 C4.68 0.33 3.36 0.66 2 1 C2 1.66 2 2.32 2 3 C2.99 3.33 3.98 3.66 5 4 C4.01 4 3.02 4 2 4 C2 4.66 2 5.32 2 6 C3.32 6.33 4.64 6.66 6 7 C4.02 7 2.04 7 0 7 C0 4.69 0 2.38 0 0 Z " fill="#6491CD" transform="translate(234,360)"/>
<path d="M0 0 C1.98 0 3.96 0 6 0 C4.68 0.33 3.36 0.66 2 1 C2 1.66 2 2.32 2 3 C2.99 3.33 3.98 3.66 5 4 C4.01 4 3.02 4 2 4 C2 4.66 2 5.32 2 6 C3.32 6.33 4.64 6.66 6 7 C4.02 7 2.04 7 0 7 C0 4.69 0 2.38 0 0 Z " fill="#6491CD" transform="translate(208,360)"/>
<path d="M0 0 C1.65 0 3.3 0 5 0 C5.33 1.32 5.66 2.64 6 4 C4.02 4 2.04 4 0 4 C0 2.68 0 1.36 0 0 Z " fill="#FBFCFD" transform="translate(150,261)"/>
<path d="M0 0 C1.32 0.33 2.64 0.66 4 1 C3.67 2.65 3.34 4.3 3 6 C0.69 6 -1.62 6 -4 6 C-4.33 5.01 -4.66 4.02 -5 3 C-2.69 3.33 -0.38 3.66 2 4 C2 3.34 2 2.68 2 2 C1.34 1.34 0.68 0.68 0 0 Z " fill="#306CBC" transform="translate(257,265)"/>
<path d="M0 0 C2.1385485 2.1385485 2.42655063 3.13275314 3 6 C1.35 6 -0.3 6 -2 6 C-1.125 1.125 -1.125 1.125 0 0 Z " fill="#A9C2E3" transform="translate(363,262)"/>
<path d="M0 0 C2.1385485 2.1385485 2.42655063 3.13275314 3 6 C1.35 6 -0.3 6 -2 6 C-1.125 1.125 -1.125 1.125 0 0 Z " fill="#A9C2E3" transform="translate(279,262)"/>
<path d="M0 0 C1.5 1.3125 1.5 1.3125 3 3 C3 3.99 3 4.98 3 6 C1.35 6 -0.3 6 -2 6 C-1.34 4.02 -0.68 2.04 0 0 Z " fill="#A9C2E3" transform="translate(175,262)"/>
</svg>
